 <svg class="svg-logo svg-logo--fifth" version="1.1" id="Warstwa_1_2_" xmlns="http://www.w3.org/2000/svg" xmlns:xlink="http://www.w3.org/1999/xlink" x="0px" y="0px" viewBox="0 0 560.44 84.55" style="enable-background: new 0 0 560.44 84.55" xml:space="preserve">
              <style type="text/css">
                .st055 {
                  fill: #fb9160;
                }

                .st16 {
                  fill: #0b7abf;
                }
              </style>
            <g>
                <g id="Warstwa_2">
                  <path class="st055" d="M98.8,46.75c-1.28,7.33-5.68,13.9-11.46,18.47c-4.09,3.15-9.19,5.36-14.45,4.91c-1.46,0-2.82-0.58-4.27-0.7
     			c-1.28,3.56-1.2,7.41-1.25,11.15c-1.48-1.77-2.89-3.61-4.66-5.11c1.63-4.89,4.56-9.18,7.12-13.61c5.05-2.14,10.21-4.14,14.9-7.03
     			c-3.52-0.35-6.91,0.8-10.23,1.67c3.61-11.58,10.48-21.86,13.92-33.49c-6.09,6.05-9.03,14.29-12.44,21.97
     			c-0.16,0.01-0.48,0.04-0.64,0.05c-1.36-2.98-2.32-6.15-3.96-9.01c0.44,3.56,1.31,7.13,0.94,10.75c-0.39,6.39-3.32,12.19-5.9,17.92
     			c-2.61,0.19-5.04-1.29-6.6-3.29c-0.43-3.38-1.61-6.64-3.38-9.55c-0.58-0.83-0.62-1.84-0.65-2.82c-0.62-9.04,3.97-17.56,9.81-24.15
     			C75.33,14.09,88.76,7.9,100.83,0.2c-2.27,3.64-3.64,7.78-4.11,12.04C95.6,23.83,100.31,35.16,98.8,46.75z"></path>
                </g>
              <g id="Warstwa_3">
                  <path class="st16" d="M66,81.7c-1.02,1.23-2.24,2.5-3.91,2.7c-1.95-3.43-3.66-7.18-6.59-9.91c-2.9,3.52-7.4,5.4-11.9,5.57
     			c-7.31,0.27-14.7-2.57-19.89-7.74C16.83,64.4,15.19,53.38,8.54,45.3c-2.25-2.6-4.86-5.1-8.23-6.13c1.48-0.19,2.98-0.35,4.47-0.36
     			c9.95-0.04,20.04-0.97,29.85,1.17c5.69,1.26,11.23,3.61,15.74,7.36c3.82,3.12,6.36,7.61,7.63,12.33c0.95,3.56,0.62,7.94-2.6,10.26
     			c-7.57-3.89-14.61-10.06-16.92-18.56c-0.31,3.02,1.06,5.89,0.98,8.9c-6.16-4.04-12.16-8.76-19.48-10.51
     			c7.79,7.01,17.67,11.21,25.57,18.08c-2.87,0.72-5.88,1.48-8.23,3.38c4.76-0.01,9.44-0.98,14.12-1.75
     			C56.88,72.72,62.34,76.41,66,81.7z"></path>
                </g>
              <g id="Warstwa_4">
                  <path d="M556.56,40.98c-2.46-2.82-6.02-4.22-10.71-4.22c-2.55,0-5.04,0.53-7.47,1.59c-2.42,1.06-4.78,2.53-7.05,4.42v-4.81h-7.29
     			v43.29h7.29V48.93c1.98-1.53,4.06-2.78,6.23-3.77c2.17-0.98,4.26-1.47,6.24-1.47c1.93,0,3.51,0.27,4.73,0.8
     			c1.21,0.53,2.14,1.33,2.79,2.42c0.62,0.98,1.04,2.34,1.28,4.09c0.23,1.74,0.34,3.61,0.34,5.6v24.65h7.29v-28.1
     			C560.23,47.86,559,43.8,556.56,40.98z"></path>
                <path d="M512.99,56.41c0-6.27-1.59-11.13-4.75-14.53c-3.16-3.41-7.66-5.12-13.5-5.12c-6.3,0-11.38,2.08-15.24,6.24
     			c-3.87,4.16-5.8,9.78-5.8,16.86c0,7.16,2.01,12.67,6.05,16.56c4.03,3.89,9.63,5.84,16.81,5.84c2.82,0,5.51-0.35,8.07-1.05
     			c2.55-0.7,5.06-1.56,7.52-2.59v-7.95h-0.39c-1.27,1.13-3.4,2.3-6.37,3.48c-2.99,1.17-5.96,1.76-8.89,1.76
     			c-2.23,0-4.26-0.31-6.12-0.93c-1.84-0.62-3.44-1.56-4.77-2.79c-1.4-1.27-2.5-2.9-3.3-4.87c-0.8-1.97-1.2-4.3-1.2-6.96h31.88V56.41
     			z M481.11,54.78c0.3-3.41,1.61-6.27,3.93-8.56c2.31-2.3,5.42-3.45,9.31-3.45c3.88,0,6.76,1.04,8.67,3.13
     			c1.89,2.09,2.86,5.06,2.88,8.88H481.11z"></path>
                <path d="M455.13,20.94v18.77c-1.93-1.02-3.79-1.76-5.55-2.24c-1.76-0.47-3.77-0.71-6.04-0.71c-2.5,0-4.92,0.52-7.26,1.55
     			c-2.35,1.03-4.4,2.54-6.16,4.5c-1.77,2.01-3.18,4.45-4.23,7.33c-1.04,2.85-1.57,6.13-1.57,9.8c0,7.05,1.52,12.57,4.55,16.55
     			c3.04,3.98,7.14,5.96,12.3,5.96c2.67,0,5.13-0.5,7.41-1.5c2.27-1.01,4.46-2.42,6.55-4.24v4.54h7.29V20.94H455.13z M455.13,70.6
     			c-1.84,1.44-3.81,2.63-5.93,3.55c-2.12,0.91-4.22,1.37-6.28,1.37c-3.88,0-6.7-1.33-8.46-4.01c-1.76-2.67-2.63-6.58-2.63-11.73
     			c0-5.21,1.14-9.25,3.41-12.09c2.28-2.85,5.45-4.26,9.54-4.26c1.83,0,3.52,0.17,5.08,0.5c1.55,0.33,3.31,0.94,5.27,1.83V70.6z"></path>
                <path d="M420.44,38.43v7.49h-0.38c-1.09-0.27-2.15-0.45-3.17-0.57c-1.01-0.12-2.22-0.18-3.62-0.18c-2.25,0-4.42,0.51-6.51,1.5
     			c-2.09,0.99-4.11,2.27-6.04,3.85v30.73h-7.29V37.96h7.29v6.39c2.89-2.31,5.45-3.96,7.66-4.93c2.2-0.97,4.45-1.46,6.76-1.46
     			c1.25,0,2.18,0.03,2.75,0.1C418.46,38.12,419.3,38.24,420.44,38.43z"></path>
                <path d="M378.11,44.86c-0.85-1.89-2.09-3.43-3.72-4.62c-1.65-1.22-3.61-2.08-5.87-2.58c-2.27-0.5-4.91-0.75-7.97-0.75
     			c-2.61,0-5.25,0.23-7.94,0.7c-2.68,0.46-4.75,0.88-6.16,1.27v7.41h0.38c2.52-0.96,4.94-1.7,7.29-2.2c2.36-0.5,4.49-0.75,6.39-0.75
     			c1.58,0,3.1,0.1,4.54,0.3c1.44,0.21,2.68,0.61,3.72,1.2c1.08,0.63,1.91,1.49,2.5,2.57c0.58,1.09,0.87,2.46,0.87,4.11v1.13
     			c-4.23,0.21-8.2,0.51-11.89,0.93c-3.69,0.42-6.87,1.2-9.5,2.36c-2.61,1.17-4.62,2.77-6.02,4.79c-1.42,2.03-2.12,4.69-2.12,7.97
     			c0,4,1.36,7.3,4.08,9.88c2.71,2.58,6.02,3.87,9.91,3.87c2.13,0,3.96-0.19,5.54-0.59c1.57-0.41,2.98-0.9,4.19-1.5
     			c1.03-0.46,2.09-1.09,3.19-1.87c1.1-0.8,1.97-1.41,2.62-1.84v4.6h7.25V51.87C379.39,49.08,378.97,46.74,378.11,44.86z
     			 M372.14,70.59c-1.81,1.4-3.77,2.59-5.89,3.58c-2.11,1-4.46,1.5-7.02,1.5c-3.07,0-5.36-0.62-6.85-1.88
     			c-1.5-1.26-2.25-3.12-2.25-5.6c0-2.19,0.64-3.93,1.93-5.18c1.29-1.25,2.99-2.17,5.08-2.77c1.76-0.49,4.14-0.87,7.15-1.12
     			c3.01-0.27,5.63-0.45,7.85-0.58V70.59z"></path>
                <path d="M332.91,52.23v24.76c-3.14,1.44-6.58,2.7-10.33,3.77c-3.73,1.07-7.34,1.62-10.82,1.62c-4.5,0-8.62-0.63-12.37-1.87
     			c-3.74-1.23-6.93-3.1-9.56-5.57c-2.66-2.51-4.73-5.65-6.17-9.41c-1.44-3.75-2.17-8.14-2.17-13.19c0-9.23,2.7-16.51,8.09-21.84
     			c5.38-5.33,12.78-8,22.18-8c3.28,0,6.63,0.4,10.06,1.18c3.41,0.79,7.1,2.13,11.06,4.02v9.1h-0.71c-0.79-0.62-1.95-1.43-3.48-2.45
     			c-1.52-1-3.02-1.84-4.49-2.51c-1.79-0.81-3.8-1.47-6.06-2c-2.26-0.53-4.83-0.79-7.7-0.79c-6.46,0-11.56,2.07-15.32,6.22
     			c-3.76,4.15-5.64,9.76-5.64,16.84c0,7.46,1.96,13.27,5.89,17.42c3.93,4.14,9.27,6.22,16.05,6.22c2.47,0,4.95-0.25,7.41-0.74
     			c2.47-0.49,4.63-1.13,6.49-1.9V58.97h-15.46v-6.74H332.91z"></path>
                </g>
              <g id="Warstwa_6">
                  <path class="st055" d="M140.94,41.85c-0.06,0.15-0.13,0.3-0.2,0.45c0.08-0.15,0.15-0.3,0.21-0.45c0.25-0.61,0.44-1.28,0.56-2
     			C141.38,40.58,141.2,41.24,140.94,41.85z M141.45,80.16c-0.26,0.07-0.53,0.14-0.8,0.21c0.27-0.06,0.54-0.13,0.8-0.2
     			c0.25-0.07,0.5-0.14,0.74-0.23C141.94,80.02,141.7,80.09,141.45,80.16z M145.58,58.27c-0.04-0.07-0.07-0.13-0.11-0.19
     			c0.03,0.06,0.07,0.12,0.1,0.19c0.35,0.68,0.62,1.49,0.79,2.41C146.19,59.75,145.93,58.95,145.58,58.27z M257.86,43.07
     			c0.61,0.13,1.19,0.29,1.73,0.48C259.05,43.35,258.47,43.19,257.86,43.07z M256.73,82.25c-1.01,0-1.99-0.04-2.94-0.11
     			c0.95,0.08,1.93,0.12,2.94,0.12c0.17,0,0.35,0,0.53-0.01H256.73z M254.52,42.76c-1.28,0-2.47,0.12-3.58,0.38
     			C252.05,42.89,253.24,42.77,254.52,42.76c0.97,0.01,1.88,0.08,2.72,0.2C256.4,42.82,255.49,42.76,254.52,42.76z M205.61,81.85
     			c0.61-0.16,1.2-0.35,1.78-0.58C206.81,81.49,206.22,81.69,205.61,81.85z M208.24,80.9c-0.28,0.13-0.57,0.25-0.85,0.37
     			c0.28-0.11,0.57-0.23,0.85-0.36c0.84-0.39,1.7-0.84,2.58-1.36C209.94,80.06,209.08,80.51,208.24,80.9z"></path>
                <path class="st055" d="M151.24,53.56c-2.25-2.62-5.32-4.34-9.22-5.13v-0.32c2.32-1.15,4.18-2.7,5.58-4.63
     			c1.39-1.92,2.09-4.25,2.09-6.98c0-2.44-0.48-4.53-1.43-6.27c-0.96-1.74-2.5-3.17-4.62-4.28c-1.91-0.99-3.91-1.63-6-1.94
     			c-2.09-0.31-5.25-0.47-9.46-0.47h-17.09v57.71h20.46c3.61,0,6.64-0.29,9.1-0.88c0.27-0.07,0.54-0.14,0.8-0.21
     			c0.25-0.07,0.49-0.14,0.74-0.22c2.31-0.74,4.45-1.87,6.41-3.41c1.84-1.43,3.3-3.23,4.38-5.43c1.09-2.19,1.63-4.73,1.63-7.6
     			C154.61,59.5,153.49,56.18,151.24,53.56z M118.76,30.09h9.14c2.57,0,4.71,0.08,6.43,0.25c0.43,0.04,0.85,0.1,1.25,0.18
     			c0.6,0.11,1.17,0.26,1.7,0.45c0.52,0.18,1.02,0.41,1.47,0.67c0.26,0.15,0.5,0.31,0.72,0.48c0.22,0.17,0.42,0.35,0.61,0.55
     			s0.36,0.4,0.52,0.61c0.14,0.22,0.28,0.45,0.4,0.69c0.46,0.95,0.7,2.13,0.7,3.53c0,0.84-0.06,1.62-0.19,2.35
     			c-0.12,0.72-0.31,1.39-0.56,2c-0.06,0.15-0.13,0.3-0.21,0.45c-0.3,0.59-0.68,1.12-1.16,1.59c-0.09,0.09-0.18,0.18-0.27,0.26
     			c-0.29,0.25-0.6,0.48-0.94,0.7c-0.15,0.1-0.31,0.19-0.47,0.29c-0.15,0.09-0.3,0.17-0.46,0.25c-0.95,0.49-1.96,0.82-3.03,1
     			c-1.42,0.25-3.33,0.37-5.73,0.37h-9.92V30.09z M146.23,67.2c-0.05,0.2-0.11,0.39-0.18,0.58c-0.12,0.37-0.27,0.72-0.44,1.04
     			c-0.17,0.32-0.36,0.63-0.57,0.93c-0.11,0.15-0.23,0.3-0.35,0.45c-0.24,0.3-0.5,0.58-0.79,0.86c-0.43,0.42-0.92,0.82-1.46,1.19
     			c-1.38,0.94-3.14,1.58-5.28,1.92c-2.14,0.36-4.89,0.53-8.25,0.53h-10.15V53.23h12.05c2.53,0,4.68,0.09,6.46,0.29
     			c1.76,0.2,3.26,0.61,4.51,1.26c0.69,0.36,1.3,0.74,1.82,1.16c0.18,0.14,0.35,0.28,0.5,0.43c0.16,0.14,0.31,0.29,0.45,0.44
     			c0.31,0.35,0.59,0.71,0.81,1.08c0.04,0.07,0.08,0.13,0.11,0.19c0.04,0.06,0.07,0.12,0.11,0.19c0.35,0.68,0.61,1.48,0.78,2.41
     			c0.09,0.46,0.15,0.95,0.2,1.47c0.04,0.52,0.06,1.08,0.06,1.66C146.62,65.08,146.49,66.22,146.23,67.2z"></path>
                <path class="st055" d="M273.16,56.41c0-6.27-1.59-11.13-4.75-14.53c-3.16-3.41-7.66-5.12-13.51-5.12c-6.3,0-11.38,2.08-15.24,6.24
     			c-3.86,4.16-5.79,9.78-5.79,16.86c0,7.16,2.01,12.67,6.04,16.56c1.01,0.97,2.12,1.82,3.32,2.55c0.45,0.27,0.92,0.53,1.4,0.77
     			c0.72,0.36,1.46,0.68,2.24,0.96c1.83,0.66,3.82,1.11,5.99,1.35c0.3,0.04,0.62,0.07,0.93,0.09c0.95,0.07,1.93,0.11,2.94,0.11h0.53
     			c0.18,0.01,0.35,0,0.52-0.01c0.35-0.01,0.7-0.02,1.04-0.05c0.34-0.02,0.69-0.04,1.03-0.08c0.67-0.07,1.35-0.16,2.01-0.26
     			c1-0.16,1.98-0.38,2.94-0.64c2.55-0.7,5.05-1.56,7.51-2.59v-7.95h-0.38c-0.87,0.78-2.15,1.57-3.83,2.38
     			c-0.58,0.27-1.2,0.55-1.87,0.82c-0.22,0.09-0.45,0.18-0.68,0.27c-0.28,0.11-0.56,0.22-0.84,0.32c-0.56,0.2-1.12,0.38-1.68,0.54
     			c-0.27,0.08-0.55,0.15-0.83,0.22c-0.46,0.12-0.93,0.22-1.39,0.3c-1.39,0.25-2.77,0.38-4.15,0.38c-1.66,0-3.23-0.17-4.69-0.51
     			c-0.48-0.12-0.96-0.25-1.42-0.41c-1.84-0.62-3.44-1.56-4.78-2.79c-1.4-1.27-2.5-2.9-3.29-4.87c-0.81-1.97-1.2-4.3-1.2-6.96h31.88
     			V56.41z M241.28,54.78c0.17-1.92,0.66-3.66,1.47-5.23c0.17-0.35,0.37-0.69,0.58-1.02c0.13-0.21,0.27-0.41,0.41-0.61
     			c0.29-0.4,0.6-0.79,0.94-1.16c0.17-0.18,0.35-0.36,0.53-0.54c0.72-0.72,1.52-1.33,2.4-1.82c0.35-0.2,0.71-0.38,1.09-0.54
     			c0.37-0.16,0.76-0.3,1.16-0.43c0.35-0.11,0.71-0.21,1.08-0.29c1.11-0.26,2.3-0.38,3.58-0.38c0.97,0,1.88,0.06,2.72,0.2
     			c0.21,0.04,0.42,0.07,0.62,0.11c0.61,0.12,1.19,0.28,1.73,0.48c1.44,0.52,2.64,1.31,3.59,2.35c1.9,2.09,2.86,5.06,2.89,8.88
     			H241.28z"></path>
                <path class="st055" d="M222.58,37.96v43.29h-7.29v-4.8c-0.61,0.48-1.21,0.94-1.81,1.36c-0.6,0.43-1.2,0.83-1.79,1.2
     			c-0.29,0.19-0.58,0.37-0.87,0.54c-0.88,0.51-1.74,0.96-2.58,1.35c-0.28,0.13-0.57,0.25-0.85,0.37c-0.58,0.22-1.17,0.42-1.78,0.58
     			c-0.6,0.16-1.22,0.29-1.85,0.38c-0.95,0.15-1.93,0.22-2.95,0.22c-4.55,0-8.1-1.38-10.63-4.16c-2.52-2.78-3.79-6.86-3.79-12.23
     			v-28.1h7.29v24.65c0,2.2,0.1,4.08,0.3,5.65c0.21,1.56,0.65,2.9,1.32,4.01c0.33,0.53,0.69,0.99,1.12,1.38
     			c0.13,0.14,0.28,0.26,0.43,0.38c0.01,0,0.01,0,0.01,0c0.24,0.18,0.49,0.35,0.75,0.5c0.13,0.08,0.27,0.15,0.41,0.21
     			c1.11,0.52,2.72,0.78,4.84,0.78c1.89,0,3.94-0.49,6.18-1.47c2.23-0.99,4.32-2.23,6.25-3.77V37.96H222.58z"></path>
                <rect x="165" y="20.94" class="st055" width="7.29" height="60.31"></rect>
                </g>
              </g>
            </svg>
       