 <svg version="1.1" id="refund" class="feature__refund" xmlns="http://www.w3.org/2000/svg" xmlns:xlink="http://www.w3.org/1999/xlink" x="0px" y="0px" viewBox="0 0 512 512" style="enable-background: new 0 0 512 512" xml:space="preserve">
          <style type="text/css">
            #arrow,
            #_x34_,
            #_x31_ {
              fill: #039341;
            }
          </style>
          <path id="arrow" class="st0" d="M15.7,344.6c9.6,25.9,23.2,50,40.7,71.7l-16.8,16c-2,1.9-2.8,4.8-2,7.5c0.8,2.7,3,4.7,5.7,5.3
		   	l94.2,19.8c2.4,0.5,4.9-0.2,6.7-1.9c1.8-1.7,2.6-4.2,2.2-6.6l-4.3-26.5l-3.4-20.8l-7.8-47.7c-0.4-2.7-2.4-5-5-5.9
		   	c-2.6-0.9-5.5-0.2-7.6,1.7l-16,15.3c-18.8-24.9-31.7-54.3-36.8-85.7c-0.2-1-0.3-2-0.5-3c-0.1-0.7-0.2-1.4-0.3-2.1
		   	c0-0.4-0.1-0.7-0.1-1c-0.2-1.2-0.3-2.5-0.4-3.7c-0.1-0.7-0.1-1.4-0.2-2.1c0-0.2-0.1-0.5-0.1-0.7c-0.2-1.5-0.3-3-0.4-4.5
		   	c-0.1-1.7-0.2-3.3-0.3-5c-0.1-1.5-0.1-3-0.1-4.5c0-0.3,0-0.6,0-1c0-1.9,0-3.7,0-5.6c0-1.7,0-3.3,0.1-5c0-0.8,0.1-1.7,0.1-2.5
		   	c0-0.4,0-0.8,0.1-1.1c0-0.4,0-0.8,0.1-1.2c0.1-1,0.1-2.1,0.2-3.1c0-0.6,0.1-1.2,0.2-1.8c0.1-0.8,0.1-1.5,0.2-2.3
		   	c0.1-0.5,0.1-1.1,0.2-1.6c0.1-0.6,0.1-1.2,0.2-1.7c0.1-0.9,0.2-1.7,0.3-2.6c0.1-0.7,0.2-1.3,0.3-1.9c0.1-0.7,0.2-1.3,0.3-2
		   	c0.8-5.3,1.8-10.5,3.1-15.7c0.2-0.8,0.4-1.7,0.6-2.5c0.1-0.5,0.2-1,0.4-1.5c0.1-0.5,0.2-0.9,0.4-1.4c0.3-1.1,0.6-2.2,0.9-3.3
		   	c9.2-32.1,26.5-60.9,50.6-84.3c0,0,0,0,0.1,0c0.8-0.8,1.6-1.5,2.4-2.3c0.9-0.8,1.7-1.6,2.6-2.4c0.7-0.6,1.4-1.3,2.1-1.9
		   	c0.1-0.1,0.2-0.2,0.3-0.3c34-29.9,78.5-48,127.2-48c106.4,0,192.9,86.5,192.9,192.9c0,4.1-0.1,8.3-0.4,12.4
		   	c-0.1,0.7-0.1,1.4-0.2,2.1c-1.9,25.6-8.7,50.2-20.3,72.7c-0.2,0.4-0.4,0.8-0.6,1.1c-0.2,0.3-0.3,0.7-0.5,1c-0.2,0.4-0.5,0.9-0.7,1.3
		   	c-0.3,0.6-0.6,1.2-0.9,1.7c-0.5,0.9-1,1.7-1.4,2.6c-5.2,9.2-11.1,17.9-17.7,26c-7.1,8.8-15,17-23.5,24.4c0,0,0,0,0,0
		   	c-1.3,1.1-2.5,2.2-3.8,3.3c-0.9,0.8-1.8,1.5-2.8,2.2c-1.6,1.3-3.2,2.6-4.9,3.8c-1,0.7-2,1.5-2.9,2.1c-2.6,1.9-5.2,3.6-7.8,5.3
		   	c-2.2,1.4-4.4,2.8-6.6,4.1c-1.5,0.9-3,1.7-4.4,2.5c-0.8,0.4-1.5,0.8-2.2,1.2c-0.9,0.5-1.7,0.9-2.6,1.4c-1.7,0.9-3.4,1.8-5.2,2.6l0,0
		   	c-1.7,0.8-3.5,1.6-5.2,2.4c0,0,0,0,0,0c-1.8,0.8-3.5,1.5-5.3,2.3c-0.9,0.4-1.8,0.7-2.7,1.1c-0.8,0.3-1.6,0.6-2.4,0.9
		   	c-1.1,0.4-2.3,0.9-3.4,1.2c-0.6,0.2-1.3,0.5-2,0.7c-0.9,0.3-1.8,0.6-2.7,0.9c-0.9,0.3-1.8,0.6-2.7,0.9c-1.2,0.4-2.4,0.7-3.6,1.1
		   	c-0.6,0.2-1.3,0.4-1.9,0.5c-0.7,0.2-1.4,0.4-2.1,0.6c-0.7,0.2-1.4,0.4-2.1,0.5c-0.7,0.2-1.4,0.4-2.1,0.5c-0.9,0.2-1.8,0.4-2.8,0.6
		   	c-0.9,0.2-1.7,0.4-2.6,0.6c-0.8,0.2-1.6,0.3-2.4,0.5c-0.8,0.2-1.5,0.3-2.3,0.4c-11.5,2.2-23.3,3.2-35.3,3.2c-4,0.2-7.2,3.4-7.2,7.5
		   	v48.1c0,4.1,3.4,7.5,7.5,7.5c141.2,0,256-114.8,256-256S397.2,0,256,0S0,114.8,0,256C0,286.5,5.3,316.4,15.7,344.6z M29.8,339.4
		   	C20,312.8,15,284.8,15,256C15,123.1,123.1,15,256,15s241,108.1,241,241c0,130.4-104.1,236.9-233.5,240.9v-33.1
		   	c5-0.2,9.9-0.5,14.9-1.1c0.7-0.1,1.4-0.2,2.1-0.2c0.8-0.1,1.6-0.2,2.4-0.3h0c2.1-0.3,4.3-0.6,6.4-0.9c0,0,0,0,0,0
		   	c1.5-0.3,3.1-0.5,4.6-0.8c2.3-0.4,4.6-0.9,6.9-1.4c0.7-0.2,1.4-0.3,2.2-0.5c0.7-0.2,1.4-0.3,2.1-0.5c0.7-0.2,1.4-0.3,2.1-0.5
		   	c0.7-0.2,1.4-0.4,2.1-0.6c0.5-0.1,0.9-0.2,1.4-0.4c1.3-0.3,2.5-0.7,3.8-1.1c0.7-0.2,1.4-0.4,2.2-0.7c0.7-0.2,1.4-0.4,2.2-0.7
		   	c0.7-0.2,1.4-0.5,2.1-0.7c0.8-0.3,1.6-0.5,2.4-0.8c0.7-0.2,1.5-0.5,2.2-0.8c0.7-0.2,1.3-0.5,2-0.7c1.3-0.5,2.7-1,4-1.5c0,0,0,0,0,0
		   	c1.1-0.4,2.2-0.9,3.4-1.3c1-0.4,2.1-0.9,3.1-1.3c0,0,0,0,0,0c12.7-5.5,24.7-12.2,36-20c0.9-0.6,1.7-1.2,2.5-1.8
		   	c0.8-0.6,1.6-1.2,2.4-1.7c0,0,0,0,0,0c0.9-0.7,1.8-1.3,2.7-2c1.2-0.9,2.3-1.8,3.4-2.7c0.6-0.5,1.2-0.9,1.8-1.4
		   	c0.6-0.5,1.3-1,1.9-1.6c1.2-1,2.5-2.1,3.7-3.1c0.1-0.1,0.2-0.2,0.3-0.3c34.5-30.1,59.3-71.8,67.9-120.3c0.4-2.2,0.7-4.5,1-6.8
		   	c0-0.1,0-0.1,0-0.2c0.1-0.8,0.2-1.6,0.3-2.3c0.1-0.5,0.1-1,0.2-1.5c0.2-2,0.5-4.1,0.7-6.1v0c0.1-0.6,0.1-1.3,0.2-1.9
		   	c0-0.6,0.1-1.2,0.2-1.9c0-0.5,0.1-1.1,0.1-1.6c0-0.6,0.1-1.2,0.1-1.8c0-0.3,0-0.6,0-0.9c0-0.6,0.1-1.2,0.1-1.8c0-0.5,0-1.1,0.1-1.6
		   	c0-0.9,0.1-1.8,0.1-2.7v-0.1c0-0.2,0-0.3,0-0.5c0.1-3.1,0.1-6.1,0-9.2c0-1.5-0.1-3-0.1-4.4c0-1.1-0.1-2.2-0.2-3.2
		   	c-0.1-1.1-0.1-2.2-0.2-3.4c-1.5-19.7-5.8-38.7-12.4-56.5C421.5,104.6,345.2,48.1,256,48.1c-52.5,0-100.6,19.6-137.2,51.8
		   	c-0.2,0.2-0.4,0.4-0.6,0.5c-0.6,0.5-1.2,1.1-1.9,1.7c-0.9,0.8-1.9,1.7-2.8,2.5c-0.7,0.6-1.4,1.3-2,1.9c-4,3.9-7.9,8-11.6,12.2
		   	c-0.6,0.7-1.2,1.4-1.8,2.1c-0.8,1-1.6,1.9-2.4,2.9c-1.1,1.3-2.1,2.6-3.1,3.9c-0.5,0.7-1,1.3-1.5,2c-0.8,1-1.5,2-2.3,3
		   	c-0.6,0.8-1.2,1.6-1.7,2.4c-0.2,0.2-0.3,0.4-0.4,0.6c-0.2,0.3-0.4,0.6-0.6,0.9c-0.7,0.9-1.3,1.9-2,2.8c-0.8,1.2-1.6,2.4-2.4,3.6
		   	c-0.9,1.5-1.9,2.9-2.8,4.4c-0.4,0.7-0.8,1.3-1.2,2c-0.1,0.1-0.2,0.3-0.2,0.4c-0.4,0.7-0.8,1.4-1.2,2.1c-0.8,1.3-1.5,2.6-2.2,4
		   	c-0.3,0.6-0.7,1.2-1,1.9c-10.4,19.3-17.7,40.3-21.6,62.2c-0.2,1.4-0.5,2.8-0.7,4.2c-0.2,1.4-0.4,2.8-0.6,4.2c-0.1,1-0.3,2-0.4,3
		   	c-0.1,0.7-0.2,1.4-0.2,2.1c0,0.1,0,0.2,0,0.3c-0.1,0.7-0.1,1.4-0.2,2.1c-0.1,1.4-0.3,2.8-0.4,4.2c-0.1,0.9-0.1,1.7-0.2,2.6v0.1
		   	c-0.1,0.9-0.1,1.8-0.2,2.6c0,0.9-0.1,1.8-0.1,2.7c-0.1,2.7-0.2,5.3-0.2,8c0,2.3,0,4.5,0.1,6.8c0,0.1,0,0.1,0,0.2
		   	c0,1.1,0.1,2.2,0.1,3.4v0c0.1,1.1,0.1,2.2,0.2,3.4c0.1,0.9,0.1,1.8,0.2,2.7c0,0.3,0,0.7,0.1,1c0.1,0.7,0.1,1.4,0.2,2.1
		   	c0,0.3,0.1,0.6,0.1,0.9c0,0,0,0.1,0,0.1c0.2,2.2,0.5,4.5,0.8,6.7c0.1,0.8,0.2,1.6,0.3,2.5c0,0,0,0,0,0.1c0.1,0.7,0.2,1.5,0.3,2.2
		   	c4.1,26.2,13.2,51.1,26.4,73.4c0,0,0,0,0,0c5.3,9,11.4,17.7,18,25.8c0.5,0.6,1,1.3,1.5,1.9c2.9,2.5,7.3,2.5,10.1-0.2l5.2-5l6.5-6.2
		   	l2.6,15.8l3.8,23.5l5,30.8l-69.5-14.6l11.5-11c2.9-2.8,3.1-7.3,0.5-10.3C53.8,390.3,39.5,365.9,29.8,339.4z"></path>
          <g id="_x31_4">
            <path id="_x31_" class="st0" d="M234.3,325.7c-0.2-1.1-0.5-2-0.9-2.7c-0.4-0.7-0.9-1.3-1.5-1.6c-0.6-0.4-1.2-0.6-1.9-0.6h-29.7
		   		V176.5c0-0.5-0.1-1-0.4-1.5c-0.3-0.5-0.8-0.8-1.5-1.1c-0.8-0.3-1.8-0.5-3.2-0.7c-1.4-0.2-3.1-0.3-5.1-0.3c-1.5,0-2.8,0-3.8,0.1
		   		c-1,0-1.9,0.2-2.7,0.3c-0.8,0.2-1.4,0.3-1.9,0.5c-0.5,0.2-0.9,0.4-1.3,0.6l-37.8,24.2c-0.8,0.5-1.4,1-1.8,1.5
		   		c-0.5,0.5-0.8,1.1-1.1,1.8c-0.3,0.7-0.4,1.5-0.6,2.5c-0.1,1-0.2,2.2-0.2,3.7c0,1.9,0.1,3.6,0.3,4.8c0.2,1.3,0.6,2.2,1.2,2.7
		   		c0.6,0.5,1.4,0.7,2.3,0.6c1-0.2,2.3-0.7,3.9-1.5l31.7-18.9v124.9h-34.3c-0.7,0-1.3,0.2-1.8,0.6c-0.6,0.4-1,0.9-1.4,1.6
		   		c-0.4,0.7-0.7,1.6-1,2.7c-0.3,1.1-0.4,2.4-0.4,3.9c0,1.6,0.1,3,0.4,4.1c0.3,1.1,0.6,2,1.1,2.7c0.5,0.7,1,1.2,1.5,1.5
		   		c0.5,0.3,1.1,0.4,1.7,0.4H230c0.6,0,1.2-0.2,1.7-0.4c0.5-0.3,1-0.8,1.5-1.5c0.4-0.7,0.8-1.6,1-2.7c0.3-1.1,0.4-2.5,0.4-4.1
		   		C234.6,328.1,234.5,326.8,234.3,325.7z"></path>
            <path id="_x34_" class="st0" d="M371.6,284.8c-0.9-1.5-2.1-2.2-3.5-2.2h-18.5V177.8c0-0.8-0.3-1.4-1-2c-0.7-0.5-1.7-1-3-1.3
		   		c-1.3-0.3-3-0.6-5.1-0.8c-2.1-0.2-4.6-0.3-7.4-0.3c-2.6,0-4.8,0.1-6.7,0.2c-1.9,0.1-3.5,0.4-4.8,0.7c-1.3,0.3-2.3,0.8-3.2,1.3
		   		c-0.8,0.5-1.4,1.1-1.9,1.8L257.9,277c-0.6,1.1-1.1,2.1-1.5,3.1c-0.4,1-0.8,2-1,3c-0.3,1.1-0.4,2.2-0.5,3.5
		   		c-0.1,1.3-0.1,2.7-0.1,4.3c0,2,0.1,3.7,0.3,4.9c0.2,1.3,0.6,2.2,1.1,2.9c0.5,0.7,1.2,1.1,1.8,1.4c0.7,0.3,1.5,0.4,2.5,0.4h67.2
		   		v34.5c0,0.7,0.2,1.3,0.5,1.7c0.3,0.5,0.9,0.9,1.7,1.2c0.8,0.3,1.9,0.6,3.3,0.8c1.4,0.2,3.1,0.3,5.2,0.3c2.2,0,4-0.1,5.4-0.3
		   		c1.4-0.2,2.5-0.4,3.4-0.8c0.9-0.3,1.5-0.7,1.8-1.2c0.3-0.5,0.5-1,0.5-1.7v-34.5h18.5c1.5,0,2.7-0.8,3.6-2.4
		   		c0.8-1.6,1.3-3.8,1.3-6.6C372.9,288.6,372.5,286.3,371.6,284.8z M327.8,282.6h-53l52.8-90.1h0.3V282.6z"></path>
          </g>
        </svg>
       