<svg version="1.1" id="shipping" class="feature__shipping" xmlns="http://www.w3.org/2000/svg" xmlns:xlink="http://www.w3.org/1999/xlink" x="0px" y="0px" viewBox="0 0 512 512" style="enable-background: new 0 0 512 512" xml:space="preserve">
          <style type="text/css">
            #circle_1_,
            #circle,
            #truck {
              fill: #039341;
            }
          </style>
          <g>
            <path id="circle_1_" class="st0" d="M119.4,349.9c-14.1,0-25.6,11.5-25.6,25.6s11.5,25.6,25.6,25.6s25.6-11.5,25.6-25.6
		C145,361.3,133.5,349.9,119.4,349.9z M119.4,384c-4.7,0-8.5-3.8-8.5-8.5s3.8-8.5,8.5-8.5s8.5,3.8,8.5,8.5
		C127.9,380.2,124.1,384,119.4,384z"></path>
            <path id="circle" class="st0" d="M392.4,349.9c-14.1,0-25.6,11.5-25.6,25.6s11.5,25.6,25.6,25.6s25.6-11.5,25.6-25.6
		C418,361.3,406.6,349.9,392.4,349.9z M392.4,384c-4.7,0-8.5-3.8-8.5-8.5s3.8-8.5,8.5-8.5s8.5,3.8,8.5,8.5
		C401,380.2,397.1,384,392.4,384z"></path>
            <path id="truck" class="st0" d="M505.4,228.4l-58.8-66.2c-4.9-5.5-11.9-8.6-19.2-8.6h-77.7v-51.2c0-14.1-11.5-25.6-25.6-25.6H25.5
		c-14.1,0-25.6,11.5-25.6,25.6v221.9c0,2.3,0.9,4.4,2.5,6s3.8,2.5,6,2.5h8.5v25.6c0,14.1,11.5,25.6,25.6,25.6h17.7
		c4.2,29.4,29.4,51.2,59.1,51.2s54.8-21.8,59.1-51.2h155c4.2,29.4,29.4,51.2,59.1,51.2s54.8-21.8,59.1-51.2h34.8
		c14.1,0,25.6-11.5,25.6-25.6v-113C511.9,239.1,509.6,233.1,505.4,228.4z M17,315.7V102.4c0-4.7,3.8-8.5,8.5-8.5h298.7
		c4.7,0,8.5,3.8,8.5,8.5v213.3H17L17,315.7z M60.3,366.9H42.6c-4.7,0-8.5-3.8-8.5-8.5v-25.6h43.6C68.3,342,62.2,354,60.3,366.9z
		 M119.4,418.1c-23.6,0-42.7-19.1-42.7-42.7s19.1-42.6,42.7-42.6s42.7,19.1,42.7,42.7C162,399,142.9,418.1,119.4,418.1z
		 M204.7,366.9h-26.3c-1.9-13-8-25-17.3-34.1h43.6L204.7,366.9L204.7,366.9z M281.5,366.9h-59.7v-34.1h59.7V366.9z M333.4,366.9
		h-34.8v-34.1h52.1C341.3,342,335.2,354,333.4,366.9z M392.4,418.1c-23.6,0-42.7-19.1-42.7-42.7s19.2-42.6,42.7-42.6
		c23.6,0,42.7,19.1,42.7,42.7C435.1,399,416,418.1,392.4,418.1z M494.8,358.4c0,4.7-3.8,8.5-8.5,8.5h-34.8
		c-4.3-29.4-29.4-51.1-59.1-51.2h-42.7v-145h34.2V256c0,14.1,11.5,25.6,25.6,25.6h85.3L494.8,358.4L494.8,358.4z M494.8,264.5h-85.3
		c-4.7,0-8.5-3.8-8.5-8.5v-85.3h26.5c2.5,0,4.8,1,6.4,2.9l58.8,66.2c1.4,1.6,2.2,3.6,2.2,5.7L494.8,264.5L494.8,264.5z"></path>
          </g>
        </svg>
