<svg version="1.1" id="world" class="feature__world" xmlns="http://www.w3.org/2000/svg" xmlns:xlink="http://www.w3.org/1999/xlink" x="0px" y="0px" viewBox="0 0 480.1 480.1" style="enable-background: new 0 0 480.1 480.1" xml:space="preserve">
          <style type="text/css">
            #earth {
              fill: #039341;
            }
          </style>
          <path id="earth" class="st0" d="M478.8,215.2c-0.2-1.8-0.4-3.6-0.6-5.3c-0.2-1.3-0.3-2.5-0.5-3.8c-0.2-1.7-0.5-3.4-0.8-5
		   	c-0.2-1.4-0.5-2.7-0.7-4.1c-0.1-0.8-0.3-1.5-0.4-2.3c-0.4-2.2-0.9-4.3-1.3-6.5c-1-4.6-2.2-9.2-3.5-13.8c-0.6-2.2-1.3-4.4-2-6.6
		   	c-0.2-0.6-0.4-1.3-0.6-1.9c-0.3-0.9-0.6-1.9-0.9-2.8c-0.5-1.4-1-2.8-1.5-4.2c-8.8-24.4-21.4-47-37.1-67c-1.8-2.3-3.6-4.5-5.4-6.7
		   	c0,0,0,0,0,0c-1.9-2.2-3.8-4.3-5.7-6.5c0,0,0,0,0,0c-0.6-0.7-1.3-1.4-2-2.1c-2-2.1-4-4.2-6-6.2c-1.3-1.3-2.7-2.7-4.1-4
		   	c-2.1-2-4.2-3.9-6.3-5.8c0,0,0,0,0,0c-1.4-1.3-2.9-2.5-4.3-3.8c0,0,0,0,0,0c-1.5-1.2-2.9-2.5-4.4-3.7c-1.5-1.2-3-2.4-4.5-3.5
		   	c0,0,0,0,0,0c-1.1-0.9-2.3-1.7-3.4-2.6c-1.7-1.3-3.5-2.5-5.3-3.8c-1.8-1.2-3.6-2.4-5.4-3.6c0,0,0,0,0,0c-1-0.7-2-1.3-3-2
		   	c-0.8-0.5-1.5-1-2.3-1.4c-2.3-1.4-4.6-2.8-7-4.2c0,0,0,0,0,0c-0.8-0.5-1.7-0.9-2.5-1.4c-4.2-2.3-8.5-4.6-12.9-6.7
		   	c-2.6-1.2-5.2-2.5-7.9-3.6c0,0,0,0-0.1,0c-0.9-0.4-1.8-0.8-2.7-1.2c-1.1-0.5-2.2-0.9-3.4-1.4c-2.3-0.9-4.5-1.8-6.8-2.6
		   	c-2.3-0.8-4.6-1.7-6.9-2.4c-2.3-0.8-4.7-1.5-7-2.2c-1.2-0.4-2.3-0.7-3.5-1c-4.7-1.3-9.5-2.5-14.4-3.6c0,0,0,0-0.1,0
		   	c-1.9-0.4-3.8-0.8-5.8-1.2c0,0,0,0-0.1,0c-2.9-0.6-5.9-1.1-8.8-1.5c-2.2-0.3-4.5-0.6-6.7-0.9c-0.7-0.1-1.5-0.2-2.2-0.3
		   	c-0.2,0-0.3,0-0.5-0.1c-3.9-0.4-7.8-0.8-11.8-1C250.4,0.2,245.2,0,240,0c-1.2,0-2.3,0-3.5,0c-0.9,0-1.8,0-2.7,0.1
		   	c-0.7,0-1.5,0-2.2,0.1c-0.9,0-1.8,0.1-2.8,0.1c-0.7,0-1.5,0.1-2.2,0.1c-0.1,0-0.1,0-0.1,0c-1.5,0.1-2.9,0.2-4.4,0.3
		   	c-2.8,0.2-5.5,0.5-8.3,0.8c-1.4,0.2-2.7,0.3-4.1,0.5c-1.3,0.2-2.6,0.3-3.9,0.5c-1.3,0.2-2.6,0.4-3.9,0.6c-1.3,0.2-2.5,0.4-3.8,0.6
		   	C117.5,17.9,50.7,72.4,19.3,145.6c-0.6,1.4-1.2,2.8-1.7,4.2c-9.7,23.9-15.7,49.7-17.2,76.6c-0.1,1.7-0.2,3.4-0.2,5.1
		   	c0,0.1,0,0.3,0,0.4c0,0.8,0,1.7-0.1,2.5c0,0.9,0,1.9,0,2.8c0,0.9,0,1.8,0,2.8c0,1.1,0,2.2,0,3.3c0,1,0,1.9,0.1,2.9
		   	c0,0.8,0,1.6,0.1,2.4c0,0.9,0.1,1.7,0.1,2.6c0,0.7,0.1,1.5,0.1,2.2c0,0.8,0.1,1.5,0.1,2.3c2.6,40.4,15.5,79.4,37,113.3
		   	c0.6,1,1.3,2,1.9,3c0.5,0.8,1,1.5,1.5,2.2c20,29.5,46.3,54.4,77.1,72.6c1.8,1.1,3.7,2.1,5.5,3.2c0.5,0.3,1,0.6,1.5,0.8
		   	c1,0.5,2,1.1,3,1.6c0.9,0.5,1.8,0.9,2.6,1.4c0.9,0.5,1.8,0.9,2.7,1.3c0.8,0.4,1.5,0.8,2.3,1.1c0.7,0.3,1.4,0.7,2.1,1
		   	c1.2,0.6,2.4,1.1,3.7,1.7c0,0,0,0,0,0c0.6,0.3,1.3,0.6,1.9,0.8c0.6,0.3,1.3,0.6,1.9,0.8c0.3,0.1,0.6,0.2,0.8,0.4
		   	c1.2,0.5,2.5,1,3.7,1.5c1.2,0.5,2.4,1,3.6,1.4c0.2,0.1,0.4,0.2,0.5,0.2c1.2,0.5,2.4,0.9,3.6,1.4c0.1,0,0.2,0.1,0.4,0.1
		   	c1,0.4,2,0.7,3,1c0.5,0.2,1.1,0.4,1.7,0.6c1,0.3,2,0.7,3.1,1c0.2,0.1,0.4,0.1,0.6,0.2c1,0.3,2,0.6,3.1,1c1,0.3,2.1,0.6,3.1,0.9
		   	c0.7,0.2,1.4,0.4,2,0.6c0.4,0.1,0.9,0.2,1.3,0.4s0.9,0.2,1.3,0.4c0.7,0.2,1.5,0.4,2.2,0.6c1,0.3,1.9,0.5,2.9,0.7
		   	c0.8,0.2,1.6,0.4,2.4,0.6c0.4,0.1,0.8,0.2,1.2,0.3c0.6,0.1,1.3,0.3,1.9,0.4c0,0,0,0,0.1,0c1.8,0.4,3.6,0.8,5.5,1.1
		   	c1.2,0.2,2.5,0.5,3.7,0.7c1,0.2,2,0.4,3,0.5c0.4,0.1,0.8,0.1,1.2,0.2c0.9,0.1,1.8,0.3,2.6,0.4c0.6,0.1,1.3,0.2,1.9,0.3
		   	c0.8,0.1,1.7,0.2,2.5,0.4c1.9,0.2,3.8,0.5,5.7,0.7c0.8,0.1,1.6,0.2,2.3,0.2c1.4,0.1,2.8,0.3,4.2,0.4c0.6,0,1.3,0.1,1.9,0.1
		   	c1.2,0.1,2.3,0.2,3.5,0.2c0.7,0,1.5,0.1,2.2,0.1c4,0.2,7.9,0.3,11.9,0.3c11.4,0,22.6-0.8,33.6-2.3c2-0.3,4-0.6,6-0.9
		   	c2-0.3,4-0.7,5.9-1c1.7-0.3,3.4-0.7,5.1-1c1.7-0.4,3.4-0.8,5.1-1.1h0c1.7-0.4,3.4-0.8,5-1.3c0,0,0,0,0,0c1.7-0.4,3.3-0.9,5-1.4
		   	c0.9-0.3,1.9-0.6,2.9-0.8c1.9-0.6,3.8-1.2,5.6-1.8c0,0,0,0,0,0c2.8-0.9,5.6-1.9,8.3-2.9h0c4.1-1.5,8.2-3.2,12.2-4.9
		   	c2-0.9,4-1.8,6-2.7c2-0.9,3.9-1.9,5.9-2.8c0,0,0,0,0,0c1.7-0.9,3.5-1.8,5.2-2.7c0.9-0.5,1.7-0.9,2.6-1.4c1.7-0.9,3.4-1.9,5.1-2.8
		   	c2.5-1.5,5-2.9,7.5-4.5c1.6-1,3.2-2.1,4.9-3.1h0c1.6-1.1,3.2-2.1,4.8-3.2c0,0,0,0,0,0c1.6-1.1,3.1-2.2,4.7-3.3c0,0,0,0,0,0
		   	c0.9-0.6,1.8-1.3,2.6-1.9c6.1-4.5,11.9-9.4,17.5-14.5h0c0.7-0.6,1.4-1.3,2.1-1.9c2.1-2,4.2-4,6.2-6c1.4-1.4,2.7-2.7,4-4.1
		   	c1.3-1.4,2.6-2.8,3.9-4.2c2.6-2.9,5.1-5.8,7.5-8.7c1.2-1.5,2.4-3,3.6-4.5c1.2-1.5,2.4-3,3.5-4.6c1.2-1.5,2.3-3.1,3.4-4.6
		   	c0.6-0.8,1.1-1.6,1.7-2.4c1-1.4,2-2.9,2.9-4.3c0.2-0.3,0.4-0.7,0.7-1c0.9-1.4,1.9-2.9,2.8-4.3c5.1-8.3,9.8-16.8,14-25.7
		   	c0.7-1.6,1.5-3.2,2.2-4.8c1.6-3.7,3.1-7.4,4.6-11.1c0.6-1.6,1.2-3.3,1.8-4.9c0.5-1.4,1-2.7,1.4-4.1c0.5-1.6,1.1-3.2,1.6-4.8
		   	c0.6-1.9,1.2-3.9,1.7-5.8c1.3-4.4,2.4-8.9,3.4-13.5c0.2-0.7,0.3-1.3,0.4-2c0.1-0.6,0.3-1.2,0.4-1.9c3.2-15.6,4.9-31.8,4.9-48.4
		   	C480.1,231.7,479.7,223.4,478.8,215.2z M343.3,41.4c19.1,10,36.6,22.6,52.1,37.5l-13,8.7l-36.3-7.2l-23.5-7.8
		   	c-1.4-0.5-3-0.5-4.5-0.2l-29.8,7.4l-13-4.3L285,56h27c1.2,0,2.5-0.3,3.6-0.8L343.3,41.4z M152.4,33.9l19.2,12.8
		   	c0.9,0.6,2,1.1,3.1,1.2l38.8,6.5l-3.8,11.3l-20.2,6.7c-1.8,0.6-3.3,1.8-4.3,3.5l-23,38.3l-36.9,22.1l-54.4,7.8
		   	c-3.9,0.6-6.9,3.9-6.9,7.9v24c0,2.1,0.8,4.2,2.3,5.7l13.7,13.7v13.8l-33.3-22.2l-12.1-36.2C57.7,98.2,99.8,56.5,152.4,33.9z
		   	 M129.7,296.2L93.5,289l-13.4-26.8v-18.8l29.8-29.8l11,22.1c1.4,2.7,4.1,4.4,7.2,4.4h51.5l21.7,36.1c1.4,2.4,4,3.9,6.8,3.9h22.2
		   	l-5.6,28.1l-30.3,30.3c-1.5,1.5-2.3,3.5-2.4,5.7v20l-28.8,21.6c-2,1.5-3.2,3.9-3.2,6.4v28.9l-10-3.3l-14-35.1V304
		   	C136.1,300.2,133.4,297,129.7,296.2z M105.6,419.2C30.2,362.6-1.7,264.8,25.8,174.6l6.6,19.9c0.6,1.7,1.7,3.1,3.1,4.1l39.9,26.6
		   	l-9.1,9.1c-1.5,1.5-2.3,3.5-2.3,5.7v24c0,1.2,0.3,2.5,0.8,3.6l16,32c1.1,2.2,3.2,3.8,5.6,4.3l33.6,6.7V384c0,1,0.2,2,0.6,3l16,40
		   	c0.9,2.2,2.7,3.9,4.9,4.6l24,8c0.8,0.3,1.6,0.4,2.5,0.4c4.4,0,8-3.6,8-8v-36l28.8-21.6c2-1.5,3.2-3.9,3.2-6.4v-20.7l29.7-29.7
		   	c1.1-1.1,1.9-2.5,2.2-4.1l8-40c0.9-4.3-1.9-8.5-6.3-9.4c-0.5-0.1-1-0.2-1.6-0.2h-27.5l-21.7-36.1c-1.5-2.4-4-3.9-6.9-3.9h-51
		   	l-13.8-27.6c-1.2-2.3-3.3-3.9-5.9-4.3c-2.5-0.4-5.1,0.4-6.9,2.2l-10.4,10.3V192c0-2.1-0.8-4.2-2.3-5.7l-13.7-13.7V159l49.1-7
		   	c1.1-0.1,2.1-0.5,3-1.1l40-24c1.1-0.7,2.1-1.6,2.7-2.7l22.5-37.5l21.2-7.1c2.4-0.8,4.3-2.7,5.1-5.1l8-24c1.4-4.2-0.9-8.7-5.1-10.1
		   	c-0.4-0.1-0.8-0.2-1.2-0.3l-46.3-7.7l-8.1-5.4c50.3-16.4,104.9-14.3,153.8,5.7L310.2,40h-30.1c-3,0-5.8,1.7-7.2,4.4l-16,32
		   	c-2,4-0.4,8.8,3.6,10.7c0.3,0.2,0.7,0.3,1,0.4l24,8c1.4,0.5,3,0.6,4.5,0.2l29.7-7.4l21.8,7.2c0.3,0.1,0.6,0.2,1,0.3l40,8
		   	c2.1,0.4,4.2,0,6-1.2l18.2-12.1c9,10,17,20.7,24.1,32.1l-39.4,13.1l-42.6-7.1l-14.1-21.1c-1.5-2.2-4-3.5-6.6-3.6h-48
		   	c-2.1,0-4.2,0.8-5.7,2.3l-24,24c-1.8,1.8-2.6,4.3-2.3,6.8l8,56c0.4,2.8,2.2,5.1,4.8,6.2l56,24c1.6,0.7,3.4,0.8,5.1,0.4l28.6-7.1
		   	l17.5,11.7V256c0,1.2,0.3,2.5,0.8,3.6l31.2,62.3V352c0,2.1,0.8,4.2,2.3,5.7l16.7,16.7C344.9,473.4,204.5,493.4,105.6,419.2z
		   	 M428.4,361l-12.3-12.3V320c0-1.2-0.3-2.5-0.8-3.6l-31.2-62.3V224c0-2.7-1.3-5.2-3.6-6.7l-24-16c-1.9-1.2-4.2-1.7-6.4-1.1l-29.4,7.3
		   	l-49.4-21.2l-6.8-47.6l18.8-18.8h40.4l13.6,20.4c1.2,1.8,3.2,3.1,5.3,3.5l48,8c1.3,0.2,2.6,0.1,3.8-0.3l44.2-14.7
		   	C475.9,208,471.9,293.6,428.4,361z"></path>
        </svg>
       