 <svg version="1.1" class="svg-logo svg-logo--second" id="Warstwa_1_2_" xmlns="http://www.w3.org/2000/svg" xmlns:xlink="http://www.w3.org/1999/xlink" x="0px" y="0px" viewBox="0 0 678 194.7" style="enable-background: new 0 0 678 194.7" xml:space="preserve">
              <style type="text/css">
                .st0111 {
                  fill: #3760aa;
                }
              </style>
            <g>
                <g id="Warstwa_1_1_">
                  <g>
                    <path class="st0111" d="M378.94,121.98c67.96,13.55,177.33,23.41,299.13-30.33c0,0-44.87,16.61-101.91,23.82
     				c0.94-19.32,2.73-36.36-4.19-47.13c-14.19-22.08-86.02-12.36-110.07-4.13l-0.05,27.1c12.01-2.67,94.75-64.16,83.84,25.93
     				c-3.05,0.61-6.44,1.05-10.08,1.37c-0.77,0.02-1.53,0.04-2.3,0.05c-27.08,0.52-60.92-3.75-100.76-9.29
     				c-1-64.2-108.39-72.36-141.89-17.43c-25.25-2.19-51.75-3.81-79.43-4.46c7.3-3.47,14.52-8.27,20.27-14.96
     				c7.12-8.27,9.73-19.44,8.78-30.1c-5-56.12-112.33-39.77-153.56-39.83c15.1,15.3,13.9,19.19,14.05,42.7l0,43.44
     				C-0.09,91.2-0.07,93.01-0.07,93.01s127.39,6.88,169.89,7.4C212.33,100.93,310.98,108.44,378.94,121.98z M394.79,103.08l-4.44,0.4
     				c-22.42-3.08-46.34-6.18-71.67-8.85C333.7,52.95,393.62,52.69,394.79,103.08z M164.51,87.37c-10.67,0.2-20.64,0.4-29.97,0.6
     				l0.78-77c33.46-0.1,71.83,0.23,68.67,40.19c-1.85,23.36-15.81,32.62-35.74,36.15C167.01,87.33,165.76,87.34,164.51,87.37z
     				 M545.71,134.69L545,174.3c-46.15,14.21-79.08-17.94-59.29-35.66c-12.3,0.05-24.12-0.36-35.44-1.11
     				c-3.92,5.52-5.81,12.84-4.81,22.55c1.86,18,22.02,32.13,41.38,33.35c24.81,1.56,37.27-9.55,58.56-14.88l6.79,15.82l39.08-8.64
     				c-12.77-17.69-15.47-37.35-15.5-55.89C565.56,131.82,555.54,133.43,545.71,134.69z M134.37,105.37
     				c-10.49-0.4-21.94-0.88-33.59-1.4l0,43.63c-0.28,28.09-5.13,23.42-11.1,42.62l57.31-0.42
     				C130.01,156.14,133.93,147.46,134.37,105.37z M314.06,117.72c-10.71-1.36-21.52-2.6-32.21-3.72
     				c-17.87,75.59,95.07,103.85,150.24,59.09C395.64,190.8,319.12,179.13,314.06,117.72z M223.95,144.01
     				c-11.11-10.98-27.04-25.56-37.05-37.14c-6.37-0.25-12.11-0.41-17.08-0.47c-6.53-0.08-15.08-0.32-24.86-0.65
     				c23.07,22.47,72.47,75.96,76.91,84.33l53.04,0.15c-0.55-0.7-1.36-1.53-1.79-1.96L223.95,144.01z"></path>
                  </g>
                </g>
              </g>
            </svg>
      