<svg class="svg-logo svg-logo--fourth" version="1.1" id="Warstwa_1" xmlns="http://www.w3.org/2000/svg" xmlns:xlink="http://www.w3.org/1999/xlink" x="0px" y="0px" viewBox="0 0 231.22 57.86" style="enable-background: new 0 0 231.22 57.86" xml:space="preserve">
              <style type="text/css">
                .yell {
                  fill: #ffe41d;
                }

                .dgrey {
                  fill: #5a5b5a;
                }

                .grey {
                  fill: #757575;
                }
              </style>
            <g>
                <path class="yell" d="M20.53,2.7h-6.64c-0.36,0-0.66-0.29-0.66-0.66V0.76c0-0.36,0.3-0.66,0.66-0.66h6.64
     		c0.36,0,0.65,0.29,0.65,0.66v1.28C21.19,2.41,20.89,2.7,20.53,2.7"></path>
              <path class="yell" d="M27.84,6.28H6.58c-0.36,0-0.66-0.29-0.66-0.65V4.34c0-0.36,0.3-0.66,0.66-0.66h21.26
     		c0.36,0,0.65,0.29,0.65,0.66v1.28C28.5,5.99,28.2,6.28,27.84,6.28"></path>
              <path class="yell" d="M36.34,9.86H3.42c-0.36,0-0.65-0.29-0.65-0.65V7.92c0-0.36,0.29-0.66,0.65-0.66h32.92
     		C36.7,7.27,37,7.56,37,7.92v1.28C37,9.57,36.7,9.86,36.34,9.86"></path>
              <path class="yell" d="M32.88,13.44H1.54c-0.36,0-0.66-0.29-0.66-0.66V11.5c0-0.36,0.3-0.66,0.66-0.66h31.34
     		c0.36,0,0.66,0.29,0.66,0.66v1.28C33.54,13.15,33.24,13.44,32.88,13.44"></path>
              <path class="yell" d="M36.34,17.02H0.75c-0.36,0-0.65-0.29-0.65-0.65v-1.28c0-0.36,0.29-0.66,0.65-0.66h35.59
     		c0.36,0,0.65,0.29,0.65,0.66v1.28C37,16.73,36.7,17.02,36.34,17.02"></path>
              <path class="yell" d="M33.67,20.6H0.75c-0.36,0-0.65-0.29-0.65-0.65v-1.28c0-0.36,0.29-0.66,0.65-0.66h32.92
     		c0.36,0,0.65,0.29,0.65,0.66v1.28C34.33,20.31,34.03,20.6,33.67,20.6"></path>
              <path class="yell" d="M36.09,24.18H2.23c-0.36,0-0.65-0.29-0.65-0.66v-1.28c0-0.36,0.29-0.66,0.65-0.66h33.86
     		c0.36,0,0.65,0.29,0.65,0.66v1.28C36.75,23.89,36.45,24.18,36.09,24.18"></path>
              <path class="yell" d="M29.62,27.76H4.8c-0.36,0-0.66-0.29-0.66-0.66v-1.28c0-0.36,0.3-0.66,0.66-0.66h24.82
     		c0.36,0,0.65,0.29,0.65,0.66v1.28C30.28,27.47,29.98,27.76,29.62,27.76"></path>
              <path class="yell" d="M32.68,31.34H7.03c-0.36,0-0.66-0.29-0.66-0.65V29.4c0-0.36,0.3-0.66,0.66-0.66h25.66
     		c0.36,0,0.66,0.29,0.66,0.66v1.28C33.34,31.05,33.05,31.34,32.68,31.34"></path>
              <path class="yell" d="M26.16,34.92H8.76c-0.36,0-0.66-0.29-0.66-0.65v-1.28c0-0.36,0.3-0.66,0.66-0.66h17.4
     		c0.36,0,0.66,0.29,0.66,0.66v1.28C26.82,34.63,26.52,34.92,26.16,34.92"></path>
              <path class="yell" d="M27.54,38.5H9.45c-0.36,0-0.66-0.29-0.66-0.66v-1.28c0-0.36,0.3-0.66,0.66-0.66h18.09
     		c0.36,0,0.66,0.29,0.66,0.66v1.28C28.2,38.21,27.9,38.5,27.54,38.5"></path>
              <path class="dgrey" d="M25.04,42.08H9.35c-0.36,0-0.66-0.29-0.66-0.65v-1.28c0-0.36,0.3-0.66,0.66-0.66h15.69
     		c0.36,0,0.65,0.29,0.65,0.66v1.28C25.69,41.78,25.4,42.08,25.04,42.08"></path>
              <path class="dgrey" d="M25.04,45.66H9.38c-0.36,0-0.66-0.29-0.66-0.65v-1.28c0-0.36,0.3-0.66,0.66-0.66h15.66
     		c0.36,0,0.65,0.29,0.65,0.66V45C25.69,45.36,25.4,45.66,25.04,45.66"></path>
              <path class="dgrey" d="M24.78,49.24H9.65c-0.36,0-0.66-0.29-0.66-0.66V47.3c0-0.36,0.3-0.66,0.66-0.66h15.13
     		c0.36,0,0.65,0.29,0.65,0.66v1.28C25.43,48.94,25.14,49.24,24.78,49.24"></path>
              <path class="dgrey" d="M20.77,52.82h-6.65c-0.36,0-0.66-0.29-0.66-0.66v-1.28c0-0.36,0.3-0.66,0.66-0.66h6.65
     		c0.36,0,0.66,0.29,0.66,0.66v1.28C21.43,52.52,21.13,52.82,20.77,52.82"></path>
              <path class="dgrey" d="M42.32,19.98v-0.67l5.02-0.15v-5.89l0.86-0.15v6.04h7.39v0.82h-7.39v19.83c0,0.86,0.03,1.57,0.07,2.14
     		c0.05,0.57,0.17,1.14,0.35,1.72c0.18,0.58,0.44,1.03,0.77,1.36c0.33,0.33,0.78,0.6,1.35,0.8c0.57,0.21,1.26,0.31,2.06,0.31
     		c1.15,0,2.18-0.18,3.09-0.54l0.22,0.72c-0.97,0.43-2.08,0.64-3.31,0.64c-1.17,0-2.13-0.16-2.87-0.48c-0.74-0.32-1.3-0.83-1.67-1.51
     		c-0.37-0.68-0.62-1.43-0.74-2.24c-0.12-0.81-0.18-1.83-0.18-3.07V19.98H42.32z"></path>
              <path class="dgrey" d="M61.89,36.53v-7.07c0-7.14,3.06-10.71,9.17-10.71c1.67,0,3.09,0.25,4.28,0.75c1.19,0.5,2.14,1.23,2.84,2.19
     		s1.22,2.07,1.55,3.35c0.32,1.28,0.48,2.75,0.48,4.42v7.07c0,3.43-0.71,6.07-2.14,7.91c-1.43,1.85-3.76,2.77-7.01,2.77
     		C64.94,47.21,61.89,43.65,61.89,36.53 M62.75,36.33c0,1.57,0.14,2.94,0.42,4.13c0.28,1.19,0.73,2.24,1.36,3.15
     		c0.63,0.92,1.48,1.61,2.57,2.09c1.09,0.48,2.41,0.72,3.96,0.72c3.02,0,5.15-0.87,6.4-2.61c1.25-1.74,1.88-4.23,1.88-7.48v-6.68
     		c0-3.25-0.63-5.74-1.88-7.48c-1.25-1.74-3.39-2.61-6.4-2.61c-3,0-5.14,0.87-6.41,2.62c-1.27,1.75-1.9,4.24-1.9,7.47V36.33z"></path>
              <path class="dgrey" d="M86.3,36.53v-7.07c0-7.14,3.06-10.71,9.18-10.71c1.67,0,3.09,0.25,4.28,0.75c1.19,0.5,2.14,1.23,2.84,2.19
     		s1.22,2.07,1.55,3.35c0.32,1.28,0.48,2.75,0.48,4.42v7.07c0,3.43-0.71,6.07-2.14,7.91c-1.43,1.85-3.76,2.77-7.01,2.77
     		C89.35,47.21,86.3,43.65,86.3,36.53 M87.16,36.33c0,1.57,0.14,2.94,0.42,4.13c0.28,1.19,0.73,2.24,1.36,3.15
     		c0.63,0.92,1.48,1.61,2.57,2.09c1.09,0.48,2.41,0.72,3.96,0.72c3.02,0,5.15-0.87,6.4-2.61c1.25-1.74,1.88-4.23,1.88-7.48v-6.68
     		c0-3.25-0.63-5.74-1.88-7.48c-1.25-1.74-3.39-2.61-6.4-2.61c-3,0-5.14,0.87-6.41,2.62c-1.27,1.75-1.9,4.24-1.9,7.47V36.33z"></path>
              <polygon class="dgrey" points="112.79,47.19 112.79,11.73 117.09,11.73 117.09,43.23 130.87,43.23 130.87,47.19 	"></polygon>
              <path class="dgrey" d="M136.63,10.02h4.45v5.17h-4.45V10.02z M136.82,19.34h4.06v27.85h-4.06V19.34z"></path>
              <path class="dgrey" d="M147.71,37.05v-7.59c0-3.35,0.79-5.94,2.36-7.78c1.57-1.84,3.85-2.76,6.84-2.76c1.45,0,2.8,0.31,4.04,0.92
     		c1.24,0.61,2.26,1.34,3.06,2.18l0.82-2.67h3.14v27.03c0,1.17-0.09,2.27-0.26,3.29c-0.17,1.02-0.49,2.04-0.96,3.07
     		c-0.47,1.02-1.08,1.9-1.82,2.63c-0.74,0.73-1.73,1.33-2.96,1.78c-1.23,0.45-2.64,0.68-4.24,0.68c-2.47,0-5.24-0.69-8.31-2.08
     		l1.21-3.14c2.52,1.05,4.89,1.58,7.1,1.58c4.12,0,6.18-2.64,6.18-7.91v-1.78c-0.79,0.86-1.8,1.59-3.02,2.19
     		c-1.22,0.6-2.55,0.9-3.98,0.9c-2.98,0-5.26-0.92-6.84-2.76C148.49,42.99,147.71,40.4,147.71,37.05 M151.74,36.75
     		c0,2.44,0.47,4.23,1.42,5.38s2.5,1.72,4.66,1.72c2.19,0,4.22-0.9,6.08-2.7v-15.8c-1.85-1.78-3.87-2.67-6.08-2.67
     		c-2.16,0-3.71,0.57-4.66,1.72c-0.95,1.15-1.42,2.93-1.42,5.36V36.75z"></path>
              <path class="dgrey" d="M175.55,47.19V9.2h4.06v13.23c0.92-0.89,2.08-1.7,3.47-2.42c1.39-0.72,2.91-1.09,4.56-1.09
     		c2.85,0,4.97,0.88,6.34,2.63c1.38,1.76,2.07,4.05,2.07,6.89v18.75H192V29.41c0-2.31-0.48-3.96-1.43-4.97
     		c-0.96-1-2.38-1.51-4.28-1.51c-1.17,0-2.36,0.3-3.56,0.89c-1.2,0.59-2.24,1.28-3.12,2.05v21.32H175.55z"></path>
              <path class="dgrey" d="M201.25,22.88v-3.19l5.02-0.35v-5.59l3.96-0.49v6.08h7.64v3.54h-7.64v16.3c0,1.57,0.3,2.7,0.9,3.39
     		c0.6,0.69,1.7,1.04,3.3,1.04c1.05,0,2.32-0.22,3.78-0.67l0.77,3.29c-1.53,0.74-3.22,1.11-5.07,1.11c-2.87,0-4.88-0.67-6.02-2.01
     		c-1.15-1.34-1.72-3.56-1.72-6.64v-15.8H201.25z"></path>
              <line class="st2" x1="38.22" y1="49.69" x2="231.1" y2="49.69"></line>
              <rect x="38.22" y="49.63" class="st2" width="192.88" height="0.1"></rect>
              </g>
            </svg>
       